<svg width="46" height="46" viewBox="0 0 46 46" fill="none" xmlns="http://www.w3.org/2000/svg">
<circle cx="23" cy="23.3113" r="14.5" stroke="#ECECEC"/>
<circle cx="23" cy="23.3113" r="7" fill="#D9D9D9"/>
<path d="M42.5 23.3113C42.5 26.5085 41.7139 29.6566 40.2108 32.4785C38.7078 35.3003 36.5339 37.7093 33.8808 39.4933C31.2276 41.2773 28.1765 42.3816 24.9961 42.7088C21.8157 43.0361 18.6036 42.5764 15.6427 41.3701" stroke="#ECECEC"/>
<path d="M3.70059 26.1012C3.24317 22.9369 3.57081 19.7086 4.65467 16.7008C5.73852 13.6929 7.54533 10.9977 9.91598 8.85243C12.2866 6.70719 15.1484 5.17777 18.2492 4.39885C21.3501 3.61992 24.5949 3.61539 27.6979 4.38566" stroke="#ECECEC"/>
</svg>
