<?xml version="1.0" encoding="utf-8"?>
<!-- Generator: Adobe Illustrator 25.4.1, SVG Export Plug-In . SVG Version: 6.00 Build 0)  -->
<svg version="1.1" id="Layer_1" xmlns="http://www.w3.org/2000/svg" xmlns:xlink="http://www.w3.org/1999/xlink" x="0px" y="0px"
	 viewBox="0 0 218 64.1" style="enable-background:new 0 0 218 64.1;" xml:space="preserve">
<style type="text/css">
	.st0{fill:#FFFFFF;}
	.st1{fill:url(#SVGID_1_);}
</style>
<path class="st0" d="M0,30.5V0.3h6.7v30.3H0z"/>
<path class="st0" d="M29.8,9.1c-0.1-0.1-0.4-0.3-0.9-0.6c-0.5-0.3-1.1-0.6-1.8-1c-0.7-0.4-1.5-0.6-2.4-0.9c-0.9-0.3-1.8-0.4-2.6-0.4
	c-2.4,0-3.6,0.8-3.6,2.5c0,0.5,0.1,0.9,0.4,1.3c0.2,0.4,0.6,0.6,1.1,0.9c0.5,0.3,1.1,0.5,1.9,0.7c0.8,0.2,1.7,0.5,2.7,0.8
	c1.4,0.4,2.6,0.8,3.8,1.3c1.1,0.5,2.1,1.1,2.9,1.8c0.8,0.7,1.4,1.5,1.8,2.5c0.4,1,0.6,2.2,0.6,3.6c0,1.7-0.3,3.2-0.9,4.3
	c-0.6,1.2-1.4,2.1-2.4,2.8c-1,0.7-2.2,1.2-3.5,1.6c-1.3,0.3-2.7,0.5-4.1,0.5c-1.1,0-2.1-0.1-3.3-0.3c-1.1-0.2-2.2-0.4-3.3-0.7
	c-1.1-0.3-2.1-0.7-3.1-1.2c-1-0.4-1.9-1-2.8-1.6l2.9-6.1c0.1,0.1,0.5,0.4,1.1,0.8c0.6,0.4,1.4,0.8,2.2,1.2c0.9,0.4,1.9,0.8,3,1.1
	c1.1,0.3,2.2,0.5,3.3,0.5c2.4,0,3.6-0.8,3.6-2.3c0-0.6-0.2-1-0.5-1.4c-0.4-0.4-0.9-0.7-1.5-1c-0.6-0.3-1.4-0.6-2.2-0.8
	c-0.9-0.3-1.8-0.5-2.8-0.9c-1.4-0.4-2.5-0.9-3.5-1.4c-1-0.5-1.8-1.1-2.4-1.7c-0.6-0.6-1.1-1.4-1.4-2.3c-0.3-0.9-0.5-1.9-0.5-3
	c0-1.6,0.3-3,0.9-4.2c0.6-1.2,1.4-2.3,2.3-3.1c1-0.8,2.1-1.5,3.4-1.9C19.4,0.2,20.8,0,22.2,0c1,0,2,0.1,3,0.3c1,0.2,1.9,0.4,2.8,0.8
	c0.9,0.3,1.8,0.7,2.5,1.1c0.8,0.4,1.5,0.8,2.1,1.2L29.8,9.1z"/>
<path class="st0" d="M80.4,15.1c0-1.8,0.3-3.6,1-5.4C82,7.9,83,6.3,84.2,4.9c1.3-1.4,2.8-2.6,4.6-3.4c1.8-0.9,3.9-1.3,6.1-1.3
	c2.7,0,5.1,0.6,7.1,1.8c2,1.2,3.5,2.8,4.5,4.8l-5.2,3.8c-0.3-0.8-0.7-1.5-1.3-2c-0.5-0.5-1.1-1-1.7-1.3c-0.6-0.3-1.2-0.5-1.8-0.7
	c-0.6-0.1-1.3-0.2-1.8-0.2c-1.3,0-2.4,0.3-3.4,0.8c-1,0.5-1.8,1.2-2.4,2.1c-0.6,0.9-1.1,1.8-1.4,2.9c-0.3,1.1-0.5,2.2-0.5,3.3
	c0,1.2,0.2,2.3,0.5,3.4c0.4,1.1,0.9,2.1,1.5,2.9c0.7,0.9,1.5,1.5,2.4,2c1,0.5,2,0.7,3.2,0.7c0.6,0,1.2-0.1,1.9-0.2
	c0.6-0.2,1.3-0.4,1.8-0.7c0.6-0.3,1.1-0.8,1.6-1.3c0.5-0.5,0.9-1.2,1.2-1.9l5.5,3.4c-0.4,1.1-1.1,2.1-1.9,3c-0.9,0.9-1.8,1.6-3,2.2
	c-1.1,0.6-2.3,1.1-3.6,1.4c-1.3,0.3-2.5,0.5-3.7,0.5c-2.1,0-4.1-0.4-5.8-1.3c-1.8-0.9-3.3-2.1-4.5-3.6c-1.3-1.5-2.2-3.2-2.9-5
	C80.7,19,80.4,17.1,80.4,15.1z"/>
<path class="st0" d="M78.1,30.5l-2.3-6.8h-9.1l-2.2,6.8H78.1z"/>
<path class="st0" d="M74.8,18.9L71.4,8.2l-3.5,10.7H74.8z"/>
<path class="st0" d="M50.7,30.5l-2.3-6.8h-9.1l-2.2,6.8H50.7z"/>
<path class="st0" d="M47.3,18.9L43.9,8.2l-3.5,10.7H47.3z"/>
<path class="st0" d="M68.3,0.3H46.9l10.7,30.3L68.3,0.3z"/>
<path class="st0" d="M203.2,24.4l14.6-19.1V0h-22.6v6.2H210l-15.4,19.1h-4V0h-5h-1.8h-5.3h-0.8h-6v15.6c0,1.1-0.1,2.2-0.3,3.3
	c-0.2,1.1-0.6,2-1,2.9c-0.5,0.8-1.1,1.5-1.9,2c-0.8,0.5-1.8,0.8-2.9,0.8c-1.2,0-2.1-0.3-2.9-0.7c-0.8-0.5-1.4-1.1-1.9-2
	c-0.5-0.8-0.9-1.8-1.1-2.8c-0.2-1.1-0.3-2.2-0.3-3.4V0h-6.8v0.1l0-0.1h-14.1h-6.7h-6.6v30.6h6.8v-9.9h4.5l5.6,9.9h7.7l-6.5-11.4
	c0.7-0.4,1.4-1,2-1.6c0.6-0.6,1.1-1.3,1.5-2.1c0.4-0.8,0.7-1.6,1-2.5c0.2-0.9,0.3-1.8,0.3-2.7c0-1.3-0.2-2.5-0.7-3.8
	c-0.2-0.4-0.4-0.9-0.6-1.3h5.8v10.4c0,2,0.2,3.9,0.7,5.8s1.3,3.4,2.3,4.9c1,1.4,2.4,2.5,4.1,3.4c1.7,0.8,3.7,1.2,6,1.2
	c2.3,0,4.2-0.4,5.9-1.2c1.7-0.8,3-1.9,4.1-3.3c1.1-1.4,1.8-3,2.4-4.8c0.5-1.9,0.8-3.8,0.8-5.9V5.3h5.3v25.3h6.1h0.6h4h0.2H218v-6.2
	H203.2z M140.2,13.4c-0.6,0.8-1.3,1.2-2.1,1.2h-6.2V6.2h6c0.8,0,1.5,0.4,2.1,1.1c0.7,0.7,1,1.8,1,3
	C141.1,11.6,140.8,12.6,140.2,13.4z"/>
<linearGradient id="SVGID_1_" gradientUnits="userSpaceOnUse" x1="3.814697e-04" y1="26.9961" x2="218" y2="26.9961" gradientTransform="matrix(1 0 0 -1 0 70)">
	<stop  offset="0" style="stop-color:#39569D"/>
	<stop  offset="0.2962" style="stop-color:#2DA4DF"/>
	<stop  offset="0.822" style="stop-color:#DC9A41"/>
</linearGradient>
<path class="st1" d="M218,41H0v4h218V41z"/>
<path class="st0" d="M0,64V52.5h4.7c0.5,0,0.9,0.1,1.3,0.3c0.4,0.2,0.7,0.5,1,0.8c0.3,0.3,0.5,0.7,0.7,1.1C7.9,55.1,8,55.5,8,56
	c0,0.6-0.1,1.2-0.4,1.7c-0.3,0.5-0.6,1-1.1,1.3c-0.5,0.3-1,0.5-1.7,0.5H0.6V64H0z M0.6,59h4.2c0.6,0,1-0.1,1.4-0.4
	c0.4-0.3,0.7-0.7,0.9-1.1c0.2-0.5,0.3-1,0.3-1.5c0-0.5-0.1-1-0.4-1.5c-0.2-0.5-0.6-0.8-1-1.1C5.7,53.1,5.2,53,4.7,53H0.6V59z
	 M28.8,52.5V64h-0.6v-5.6h-7.7V64H20V52.5h0.6v5.4h7.7v-5.4H28.8z M46.4,64.1c-0.8,0-1.5-0.2-2.2-0.5c-0.7-0.3-1.2-0.8-1.7-1.3
	c-0.5-0.6-0.8-1.2-1.1-1.9C41.1,59.7,41,59,41,58.2c0-0.8,0.1-1.5,0.4-2.2c0.3-0.7,0.7-1.3,1.1-1.9c0.5-0.6,1.1-1,1.7-1.3
	c0.7-0.3,1.4-0.5,2.1-0.5c0.8,0,1.5,0.2,2.2,0.5c0.7,0.3,1.2,0.8,1.7,1.3c0.5,0.6,0.8,1.2,1.1,1.9s0.4,1.4,0.4,2.1
	c0,0.8-0.1,1.5-0.4,2.2c-0.3,0.7-0.7,1.3-1.1,1.9c-0.5,0.5-1.1,1-1.7,1.3C47.9,63.9,47.2,64.1,46.4,64.1z M41.6,58.2
	c0,0.7,0.1,1.4,0.4,2c0.2,0.6,0.6,1.2,1,1.7c0.4,0.5,0.9,0.9,1.5,1.2c0.6,0.3,1.2,0.4,2,0.4c0.7,0,1.4-0.2,2-0.5s1.1-0.7,1.5-1.2
	c0.4-0.5,0.7-1.1,1-1.7c0.2-0.6,0.3-1.3,0.3-1.9c0-0.7-0.1-1.4-0.4-2c-0.2-0.6-0.6-1.2-1-1.7c-0.4-0.5-0.9-0.9-1.5-1.2
	c-0.6-0.3-1.2-0.4-1.9-0.4c-0.7,0-1.4,0.2-2,0.5c-0.6,0.3-1.1,0.7-1.5,1.2c-0.4,0.5-0.8,1.1-1,1.7C41.7,56.9,41.6,57.6,41.6,58.2z
	 M71.4,53h-4.3v11h-0.6V53h-4.3v-0.5h9.2V53z M87.3,64.1c-0.8,0-1.5-0.2-2.2-0.5c-0.7-0.3-1.2-0.8-1.7-1.3c-0.5-0.6-0.8-1.2-1.1-1.9
	c-0.3-0.7-0.4-1.4-0.4-2.2c0-0.8,0.1-1.5,0.4-2.2c0.3-0.7,0.7-1.3,1.1-1.9c0.5-0.6,1.1-1,1.7-1.3c0.7-0.3,1.4-0.5,2.1-0.5
	c0.8,0,1.5,0.2,2.2,0.5c0.7,0.3,1.2,0.8,1.7,1.3c0.5,0.6,0.8,1.2,1.1,1.9s0.4,1.4,0.4,2.1c0,0.8-0.1,1.5-0.4,2.2
	c-0.3,0.7-0.7,1.3-1.1,1.9c-0.5,0.5-1.1,1-1.7,1.3C88.7,63.9,88,64.1,87.3,64.1z M82.5,58.2c0,0.7,0.1,1.4,0.4,2
	c0.2,0.6,0.6,1.2,1,1.7c0.4,0.5,0.9,0.9,1.5,1.2c0.6,0.3,1.2,0.4,2,0.4c0.7,0,1.4-0.2,2-0.5c0.6-0.3,1.1-0.7,1.5-1.2
	c0.4-0.5,0.7-1.1,1-1.7c0.2-0.6,0.3-1.3,0.3-1.9c0-0.7-0.1-1.4-0.4-2c-0.2-0.6-0.6-1.2-1-1.7c-0.4-0.5-0.9-0.9-1.5-1.2
	c-0.6-0.3-1.2-0.4-1.9-0.4c-0.7,0-1.4,0.2-2,0.5c-0.6,0.3-1.1,0.7-1.5,1.2c-0.4,0.5-0.8,1.1-1,1.7C82.6,56.9,82.5,57.6,82.5,58.2z
	 M109.5,64.1c-0.8,0-1.5-0.2-2.2-0.5c-0.7-0.3-1.2-0.8-1.7-1.3c-0.5-0.6-0.9-1.2-1.1-1.9c-0.3-0.7-0.4-1.4-0.4-2.1
	c0-0.8,0.1-1.5,0.4-2.2c0.3-0.7,0.6-1.3,1.1-1.9c0.5-0.6,1-1,1.7-1.3c0.7-0.3,1.4-0.5,2.1-0.5c1.2,0,2.1,0.2,2.8,0.7
	c0.7,0.5,1.2,1.1,1.6,1.8l-0.5,0.2c-0.4-0.8-1-1.4-1.6-1.7c-0.7-0.3-1.4-0.5-2.3-0.5c-0.7,0-1.4,0.2-2,0.5c-0.6,0.3-1.1,0.7-1.5,1.2
	c-0.4,0.5-0.7,1.1-0.9,1.7c-0.2,0.6-0.3,1.3-0.3,1.9c0,0.7,0.1,1.4,0.4,2c0.2,0.6,0.6,1.2,1,1.7c0.5,0.5,1,0.9,1.6,1.2
	c0.6,0.3,1.2,0.4,1.9,0.4c0.8,0,1.5-0.2,2.2-0.6c0.7-0.4,1.4-1,2-1.8v0.7C112.5,63.3,111.1,64.1,109.5,64.1z M113.5,58.9h-2.7v-0.5
	h3.2V64h-0.5V58.9z M126.5,64V52.5h4.7c0.5,0,0.9,0.1,1.3,0.3c0.4,0.2,0.7,0.5,1,0.8c0.3,0.3,0.5,0.7,0.7,1.1
	c0.2,0.4,0.2,0.8,0.2,1.3c0,0.6-0.1,1.1-0.4,1.6c-0.2,0.5-0.6,0.9-1,1.3c-0.4,0.3-0.9,0.5-1.5,0.6l2.9,4.5h-0.7l-2.9-4.5h-4V64
	H126.5z M127,59h4.3c0.5,0,1-0.1,1.4-0.4c0.4-0.3,0.7-0.7,0.9-1.1c0.2-0.5,0.3-1,0.3-1.5c0-0.5-0.1-1-0.4-1.5
	c-0.2-0.5-0.6-0.8-1-1.1c-0.4-0.3-0.9-0.4-1.4-0.4H127V59z M150.4,52.5h0.5l5,11.5h-0.6l-1.7-4h-5.8l-1.7,4h-0.6L150.4,52.5z
	 M153.4,59.5l-2.7-6.4l-2.7,6.4H153.4z M167.6,64V52.5h4.7c0.5,0,0.9,0.1,1.3,0.3c0.4,0.2,0.7,0.5,1,0.8c0.3,0.3,0.5,0.7,0.7,1.1
	c0.2,0.4,0.3,0.8,0.3,1.3c0,0.6-0.1,1.2-0.4,1.7c-0.3,0.5-0.6,1-1.1,1.3c-0.5,0.3-1,0.5-1.7,0.5h-4.3V64H167.6z M168.2,59h4.2
	c0.6,0,1-0.1,1.4-0.4c0.4-0.3,0.7-0.7,0.9-1.1c0.2-0.5,0.3-1,0.3-1.5c0-0.5-0.1-1-0.4-1.5c-0.2-0.5-0.6-0.8-1-1.1
	c-0.4-0.3-0.9-0.4-1.4-0.4h-4.1V59z M196.4,52.5V64h-0.6v-5.6h-7.7V64h-0.6V52.5h0.6v5.4h7.7v-5.4H196.4z M208.8,52.5l4.2,6.5
	l4.3-6.5h0.6l-4.6,7.1V64h-0.6v-4.5l-4.6-7.1H208.8z"/>
</svg>
